<svg width="25" height="30" viewBox="0 0 25 30" fill="none" xmlns="http://www.w3.org/2000/svg">
<path d="M24.3679 27.9875L22.6136 8.45108C22.5657 7.91755 22.1186 7.50889 21.583 7.50889H17.9653V5.87728C17.9653 2.83646 15.4916 0.362549 12.4509 0.362549C9.41032 0.362549 6.93683 2.83646 6.93683 5.87728V7.50889H3.31668C2.78109 7.50889 2.33393 7.91755 2.28605 8.45108L0.524889 28.0644C0.498951 28.3538 0.595805 28.6407 0.791858 28.8551C0.987911 29.0695 1.26509 29.1916 1.55551 29.1916H23.3443C23.3451 29.1916 23.3462 29.1916 23.3471 29.1916C23.9187 29.1916 24.3818 28.7283 24.3818 28.1568C24.3817 28.0993 24.377 28.0426 24.3679 27.9875ZM9.00635 5.87728C9.00635 3.97759 10.5516 2.43207 12.451 2.43207C14.3506 2.43207 15.8959 3.97759 15.8959 5.87728V7.50889H9.00635V5.87728ZM2.6874 27.1222L4.26273 9.57842H6.93683V11.4288C6.93683 12.0003 7.39999 12.4636 7.97159 12.4636C8.54319 12.4636 9.00635 12.0003 9.00635 11.4288V9.57842H15.8959V11.4288C15.8959 12.0003 16.3591 12.4636 16.9307 12.4636C17.5023 12.4636 17.9655 12.0003 17.9655 11.4288V9.57842H20.6371L22.2124 27.1222H2.6874Z" fill="#EFF5FF"/>
</svg>
