<svg width="25" height="25" viewBox="0 0 25 25" fill="none" xmlns="http://www.w3.org/2000/svg">
<g clip-path="url(#clip0)">
<path d="M24.3491 7.07362C24.2927 5.79523 24.086 4.91636 23.7899 4.1548C23.4844 3.34642 23.0144 2.62268 22.3986 2.02103C21.7969 1.41002 21.0684 0.935242 20.2694 0.634511C19.5034 0.338369 18.6292 0.131639 17.3508 0.0752747C16.0628 0.0141369 15.654 0 12.3874 0C9.12087 0 8.712 0.0141369 7.42884 0.0705012C6.15045 0.126865 5.27158 0.333779 4.5102 0.629737C3.70164 0.935242 2.9779 1.40525 2.37626 2.02103C1.76525 2.62268 1.29065 3.35119 0.989735 4.15021C0.693593 4.91636 0.486863 5.79046 0.430499 7.06885C0.369362 8.35678 0.355225 8.76565 0.355225 12.0322C0.355225 15.2988 0.369362 15.7076 0.425726 16.9908C0.48209 18.2692 0.689003 19.148 0.985145 19.9096C1.29065 20.718 1.76525 21.4417 2.37626 22.0434C2.9779 22.6544 3.70642 23.1292 4.50543 23.4299C5.27158 23.726 6.14568 23.9328 7.42425 23.9891C8.70722 24.0457 9.11628 24.0596 12.3828 24.0596C15.6494 24.0596 16.0583 24.0457 17.3414 23.9891C18.6198 23.9328 19.4987 23.726 20.26 23.4299C21.877 22.8047 23.1554 21.5264 23.7805 19.9096C24.0765 19.1435 24.2834 18.2692 24.3397 16.9908C24.3961 15.7076 24.4102 15.2988 24.4102 12.0322C24.4102 8.76565 24.4055 8.35678 24.3491 7.07362ZM22.1825 16.8968C22.1307 18.0718 21.9333 18.7063 21.7688 19.1293C21.3646 20.1775 20.5327 21.0094 19.4845 21.4136C19.0615 21.5781 18.4224 21.7755 17.252 21.8271C15.983 21.8836 15.6024 21.8976 12.3922 21.8976C9.182 21.8976 8.79663 21.8836 7.5322 21.8271C6.35718 21.7755 5.72267 21.5781 5.29967 21.4136C4.77807 21.2209 4.30329 20.9153 3.91792 20.5158C3.51841 20.1257 3.21291 19.6557 3.02013 19.1341C2.85563 18.7111 2.65826 18.0718 2.60667 16.9016C2.55012 15.6325 2.53617 15.2518 2.53617 12.0416C2.53617 8.83138 2.55012 8.446 2.60667 7.18176C2.65826 6.00674 2.85563 5.37223 3.02013 4.94922C3.21291 4.42744 3.51841 3.95284 3.92269 3.56729C4.31265 3.16778 4.78266 2.86227 5.30444 2.66968C5.72745 2.50518 6.36673 2.30781 7.53698 2.25604C8.806 2.19967 9.18678 2.18554 12.3968 2.18554C15.6117 2.18554 15.9923 2.19967 17.2568 2.25604C18.4318 2.30781 19.0663 2.50518 19.4893 2.66968C20.0109 2.86227 20.4857 3.16778 20.8711 3.56729C21.2706 3.95743 21.5761 4.42744 21.7688 4.94922C21.9333 5.37223 22.1307 6.01133 22.1825 7.18176C22.2388 8.45078 22.253 8.83138 22.253 12.0416C22.253 15.2518 22.2388 15.6278 22.1825 16.8968Z" fill="#C1C1C1"/>
<path d="M12.3879 5.85156C8.97576 5.85156 6.20731 8.61984 6.20731 12.0322C6.20731 15.4445 8.97576 18.2128 12.3879 18.2128C15.8002 18.2128 18.5685 15.4445 18.5685 12.0322C18.5685 8.61984 15.8002 5.85156 12.3879 5.85156ZM12.3879 16.0414C10.1743 16.0414 8.37871 14.246 8.37871 12.0322C8.37871 9.81836 10.1743 8.02296 12.3879 8.02296C14.6017 8.02296 16.3971 9.81836 16.3971 12.0322C16.3971 14.246 14.6017 16.0414 12.3879 16.0414Z" fill="#C1C1C1"/>
<path d="M20.256 5.60719C20.256 6.40401 19.6099 7.05008 18.8129 7.05008C18.0161 7.05008 17.37 6.40401 17.37 5.60719C17.37 4.8102 18.0161 4.16431 18.8129 4.16431C19.6099 4.16431 20.256 4.8102 20.256 5.60719Z" fill="#C1C1C1"/>
</g>
<defs>
<clipPath id="clip0">
<rect width="24.0597" height="24.0597" fill="white" transform="translate(0.313446)"/>
</clipPath>
</defs>
</svg>
