<svg width="132" height="45" viewBox="0 0 132 45" fill="none" xmlns="http://www.w3.org/2000/svg">
<path d="M31.7042 42.6462H2.87498C2.01434 42.6462 1.31665 41.9485 1.31665 41.0878V17.079C1.31665 16.6637 1.48237 16.2657 1.77702 15.9731L17.2896 0.571167L32.8021 15.9731C33.0968 16.2657 33.2625 16.6637 33.2625 17.079V41.0878C33.2625 41.9485 32.5648 42.6462 31.7042 42.6462Z" stroke="#EFF5FF" stroke-width="0.779167"/>
<path d="M10.1807 39.7391C11.7122 41.3541 13.8425 42.2653 16.0683 42.2574C20.4676 42.2574 24.585 38.9995 25.6654 38.0735C25.7133 38.0414 25.7583 38.0051 25.7997 37.965C25.8028 37.9622 25.8072 37.9614 25.8107 37.9583C26.8092 37.0848 28.5135 35.0596 28.702 31.3026C28.8692 28.0048 27.5217 26.271 26.2051 25.7481C25.4644 25.4547 24.7338 25.5612 24.3421 26.0223C24.1553 26.2412 23.7898 26.8664 24.4252 27.9315C25.2869 29.3086 25.0382 31.1053 23.8349 32.1965C22.9594 31.0475 22.007 29.9592 20.9843 28.939C17.5411 25.4993 13.3435 22.7326 11.9819 24.0927C11.9466 24.1312 11.9143 24.1725 11.8855 24.2161C11.8757 24.225 11.8665 24.2344 11.8577 24.2443C11.7496 24.3696 11.6062 24.5424 11.4417 24.7488C10.8012 24.0248 9.94037 23.5314 8.99187 23.3449C8.04946 23.2228 7.10634 23.5652 6.46177 24.2635C5.42044 25.2502 4.98703 26.7189 5.32578 28.1129C5.56145 29.0394 6.04963 29.8823 6.73597 30.5478C7.10125 30.9122 7.51017 31.2301 7.95343 31.4942C7.31924 34.1618 7.5856 37.1443 10.1807 39.7391ZM8.12813 26.5076C8.20491 26.343 8.34444 26.216 8.51554 26.1551C8.66448 26.1128 8.82424 26.1331 8.95779 26.2115C9.30832 26.4259 9.60949 26.7122 9.84151 27.0513C9.49787 27.6208 9.18471 28.2082 8.90334 28.8109C8.28012 28.2848 7.65141 27.4082 8.12813 26.5076ZM10.7346 39.1852C6.02539 34.4763 9.7757 28.2523 11.7037 25.6877C11.7695 25.9778 11.8599 26.2616 11.974 26.5362C12.7003 28.3271 14.5143 30.7773 16.827 33.09L17.0879 33.3474C19.4233 35.635 22.3201 37.7938 24.2344 38.2137C21.671 40.1421 15.4435 43.8948 10.7346 39.1852ZM12.9435 26.7775C14.1139 26.8046 15.2082 27.3635 15.9163 28.2958C16.4474 29.0068 16.4463 29.8968 16.4451 30.7578C16.4451 31.032 16.4451 31.3097 16.4643 31.5827C15.078 30.1483 13.8935 28.5317 12.9435 26.7775ZM25.0985 27.5288C24.8377 27.0913 24.7777 26.7172 24.9387 26.5284C25.2269 26.3213 25.6092 26.3007 25.918 26.4755C26.9337 26.8794 28.0682 28.3749 27.9216 31.2627C27.7466 34.7298 26.2024 36.5767 25.2971 37.3688C25.2901 37.375 25.287 37.3841 25.2803 37.3911C25.2736 37.3982 25.2591 37.4025 25.2505 37.4107C25.2303 37.4213 25.211 37.4333 25.1925 37.4467C24.793 37.6551 23.7886 37.3829 22.3953 36.5665C23.6048 36.2854 24.6913 35.6213 25.493 34.673C25.5875 34.5657 25.6161 34.4154 25.5675 34.2809C25.519 34.1464 25.401 34.0491 25.2597 34.027C25.1184 34.0049 24.9763 34.0615 24.889 34.1747C24.0036 35.1891 22.7625 35.8249 21.4219 35.9508C20.6164 35.3955 19.844 34.7938 19.1084 34.1489C19.3093 34.1751 19.5189 34.197 19.7469 34.2092C21.2555 34.3497 22.7648 33.9483 24.0045 33.0771L24.0088 33.074C25.776 31.8012 26.2527 29.3757 25.0985 27.5288ZM20.4308 29.4902C21.4285 30.4855 22.3576 31.5471 23.212 32.6678C22.175 33.2641 20.9802 33.5284 19.7884 33.425C18.7351 33.3686 18.0429 33.1539 17.6708 32.7677C17.2262 32.309 17.227 31.5905 17.2281 30.7585C17.2281 29.8157 17.2305 28.7471 16.5438 27.8269C15.6036 26.6156 14.1375 25.9311 12.6051 25.9882C12.3117 25.1628 12.4194 24.8197 12.4876 24.7077L12.4981 24.6896C12.5088 24.6733 12.5213 24.6582 12.5354 24.6446C13.1695 24.01 16.4811 25.5448 20.4308 29.4902ZM7.28751 29.9939C6.70476 29.4309 6.28933 28.7174 6.08728 27.9327C5.8167 26.8025 6.17145 25.6139 7.01722 24.817C7.49091 24.2948 8.18868 24.0352 8.88846 24.1209C9.69899 24.2979 10.4279 24.7387 10.961 25.3744C10.7487 25.6627 10.5188 25.9913 10.2822 26.3537C10.0209 26.019 9.6976 25.7379 9.32993 25.5256C9.01161 25.3479 8.63506 25.3062 8.2856 25.41C7.91465 25.5309 7.60799 25.7961 7.43479 26.1457C6.76182 27.4148 7.52254 28.7545 8.58018 29.5575C8.42937 29.9308 8.29109 30.3147 8.17005 30.7084C7.85192 30.5014 7.55615 30.262 7.28751 29.9939Z" fill="#EFF5FF"/>
<path d="M22.3879 24.7902C22.5383 24.8286 22.6929 24.8484 22.8482 24.8493C23.1837 24.8607 23.5096 24.7366 23.7526 24.505C24.0828 24.1334 24.1913 23.6146 24.0378 23.1418C23.8878 22.6074 23.5982 22.1225 23.1987 21.7371C22.8133 21.3377 22.3285 21.0482 21.794 20.8985C21.3208 20.744 20.8012 20.8524 20.4293 21.1832C20.0983 21.5552 19.9897 22.075 20.1441 22.5484C20.2938 23.083 20.5834 23.5679 20.9832 23.9531C21.3686 24.3521 21.8535 24.641 22.3879 24.7902ZM20.9832 21.7348C21.079 21.6521 21.2036 21.6106 21.3299 21.6192C21.4224 21.6203 21.5145 21.6327 21.6041 21.656C22 21.7727 22.3587 21.9908 22.6445 22.2887C22.9427 22.5746 23.161 22.9336 23.2779 23.3299C23.3582 23.5369 23.3287 23.7705 23.1995 23.9511C23.0188 24.0801 22.7853 24.1095 22.5783 24.0295C22.1822 23.9127 21.8236 23.6945 21.5379 23.3964C21.2397 23.1116 21.0212 22.7538 20.9041 22.3584C20.8233 22.1506 20.8531 21.9162 20.9832 21.7352V21.7348Z" fill="#EFF5FF"/>
<path d="M43.1378 22.0787C42.6984 22.0787 42.3103 21.9385 41.9737 21.658C41.6465 21.3681 41.4829 21.0035 41.4829 20.564C41.4829 20.0217 41.6605 19.5823 42.0158 19.2457C42.3711 18.9091 42.8012 18.7408 43.3061 18.7408C43.4838 18.7408 43.6567 18.7782 43.825 18.853L43.8811 18.5725L45.1434 12.7802L47.2191 12.4997L45.6904 19.6945C45.6343 19.9469 45.5735 20.1667 45.508 20.3537C45.7418 20.55 46.0176 20.6482 46.3355 20.6482C46.8685 20.6482 47.336 20.3396 47.738 19.7225C48.1494 19.1054 48.4673 18.32 48.6917 17.3663C48.9161 16.4126 49.0283 15.4496 49.0283 14.4772C49.0283 13.5609 48.846 12.8924 48.4813 12.4716C48.126 12.0415 47.6258 11.8265 46.9807 11.8265C46.2794 11.8265 45.6483 11.9667 45.0873 12.2472C44.5356 12.5184 44.1009 12.9111 43.783 13.4253C43.4651 13.9396 43.3061 14.5426 43.3061 15.2345C43.3061 15.5805 43.3388 15.8236 43.4043 15.9638C43.4697 16.0947 43.5025 16.1695 43.5025 16.1882C43.0163 16.1882 42.6423 16.0854 42.3805 15.8797C42.128 15.674 42.0018 15.3421 42.0018 14.8839C42.0018 14.2481 42.2402 13.645 42.7171 13.0747C43.1939 12.5043 43.8297 12.0462 44.6245 11.7002C45.4286 11.3543 46.2934 11.1813 47.2191 11.1813C48.5 11.1813 49.4444 11.56 50.0521 12.3173C50.6599 13.0747 50.9638 14.0424 50.9638 15.2205C50.9638 16.2864 50.7814 17.3383 50.4168 18.3761C50.0615 19.4046 49.5846 20.2461 48.9862 20.9006C48.3878 21.5551 47.752 21.8824 47.0788 21.8824C46.3589 21.8824 45.7278 21.5879 45.1855 20.9988C44.9237 21.3915 44.6151 21.6673 44.2598 21.8263C43.9045 21.9946 43.5305 22.0787 43.1378 22.0787ZM42.8152 20.8305C42.9835 20.8305 43.1425 20.7464 43.2921 20.5781C43.451 20.4004 43.5679 20.1199 43.6427 19.7366L43.7128 19.3859C43.5632 19.2924 43.423 19.2457 43.2921 19.2457C43.0303 19.2457 42.7919 19.3579 42.5768 19.5823C42.3618 19.7973 42.2542 20.0591 42.2542 20.3677C42.2542 20.5079 42.3057 20.6201 42.4085 20.7043C42.5207 20.7884 42.6563 20.8305 42.8152 20.8305ZM58.3121 21.7842C57.9194 21.7842 57.6015 21.686 57.3584 21.4897C57.1153 21.284 56.9423 21.0175 56.8395 20.6903C56.3533 20.9895 55.7736 21.2419 55.1004 21.4476C54.4272 21.6533 53.8148 21.7562 53.2631 21.7562C52.5712 21.7562 52.0242 21.5785 51.6222 21.2232C51.2201 20.8679 51.0191 20.3069 51.0191 19.5402C51.0191 18.9044 51.15 18.1985 51.4118 17.4224C51.6736 16.6464 52.0944 15.9779 52.6741 15.4169C53.2538 14.8465 53.9831 14.5613 54.862 14.5613C56.0588 14.5613 56.6572 15.3093 56.6572 16.8053C56.6572 17.6281 56.5496 18.3668 56.3346 19.0213C56.1289 19.6758 55.8344 20.2321 55.451 20.6903C56.0027 20.5033 56.4421 20.3069 56.7694 20.1012C56.7787 19.7927 56.8582 19.5542 57.0078 19.3859C57.1574 19.2083 57.3678 19.1195 57.6389 19.1195C57.854 19.1195 58.0269 19.1896 58.1578 19.3298C58.2981 19.4607 58.3682 19.6337 58.3682 19.8488C58.3682 20.0732 58.3121 20.2415 58.1999 20.3537C58.0971 20.4659 57.9662 20.5126 57.8072 20.4939C57.7979 20.6248 57.8353 20.7464 57.9194 20.8586C58.0036 20.9708 58.1485 21.0269 58.3542 21.0269C58.6347 21.0269 58.8591 20.924 59.0274 20.7183C59.1957 20.5033 59.3219 20.2368 59.4061 19.9189C59.4996 19.601 59.6024 19.1615 59.7146 18.6005L59.7988 18.1658L60.5421 14.6876H62.5056L62.8001 20.0732L65.4088 14.6876H67.4985L66.4747 19.4561C66.4373 19.5963 66.4186 19.7459 66.4186 19.9049C66.4186 20.0919 66.4606 20.2274 66.5448 20.3116C66.6383 20.3864 66.7879 20.4238 66.9936 20.4238C67.1619 20.4238 67.3115 20.3957 67.4424 20.3396C67.405 20.8071 67.2367 21.1671 66.9375 21.4196C66.6476 21.6627 66.3017 21.7842 65.8996 21.7842C65.4789 21.7842 65.1376 21.644 64.8758 21.3635C64.6234 21.083 64.4971 20.6622 64.4971 20.1012C64.4971 19.961 64.5252 19.7272 64.5813 19.4C64.6467 19.0634 64.7823 18.4089 64.988 17.4365L62.9123 21.7001H60.9488L60.6964 17.4224L60.514 18.306C60.3364 19.1943 60.1728 19.8675 60.0232 20.3256C59.8829 20.7838 59.6772 21.1437 59.4061 21.4055C59.1443 21.658 58.7796 21.7842 58.3121 21.7842ZM53.8241 20.4939C54.0953 20.4939 54.3617 20.3116 54.6235 19.9469C54.8947 19.5823 55.1097 19.1008 55.2687 18.5024C55.437 17.8946 55.5211 17.2448 55.5211 16.5529C55.5211 16.1415 55.4791 15.8516 55.3949 15.6833C55.3201 15.5057 55.1799 15.4169 54.9742 15.4169C54.6656 15.4169 54.3664 15.6413 54.0766 16.0901C53.7867 16.5389 53.553 17.0765 53.3753 17.7029C53.1977 18.3294 53.1088 18.881 53.1088 19.3579C53.1088 19.8067 53.1603 20.1106 53.2631 20.2695C53.366 20.4191 53.553 20.4939 53.8241 20.4939ZM75.6039 21.7842C75.0429 21.7842 74.6175 21.6486 74.3277 21.3775C74.0472 21.097 73.9069 20.7136 73.9069 20.2274C73.9069 20.0965 73.9396 19.8347 74.0051 19.442C74.0518 19.2083 74.0752 19.026 74.0752 18.8951C74.0752 18.4463 73.8976 18.2219 73.5423 18.2219C73.4207 18.2219 73.3038 18.2593 73.1916 18.3341C73.0888 18.3995 72.9065 18.5351 72.6447 18.7408L72.0276 21.7001H70.008L71.5086 14.6876H73.5282L72.9252 17.4645C73.561 16.7165 74.0659 16.1462 74.4399 15.7535C74.8139 15.3608 75.1551 15.0662 75.4637 14.8699C75.7816 14.6642 76.0901 14.5613 76.3893 14.5613C76.969 14.5613 77.2589 14.8699 77.2589 15.487C77.2589 15.7675 77.1794 15.9919 77.0205 16.1602C76.8709 16.3191 76.6558 16.3986 76.3753 16.3986C76.1135 16.3986 75.9172 16.3285 75.7863 16.1882C75.6554 16.0386 75.5946 15.8703 75.6039 15.6833C75.4263 15.7955 75.2673 15.9218 75.1271 16.062C74.9868 16.2023 74.8326 16.3846 74.6643 16.609C74.4679 16.8708 74.2762 17.0952 74.0892 17.2822C74.2762 17.2448 74.4726 17.2261 74.6783 17.2261C75.1645 17.2261 75.5058 17.3336 75.7021 17.5487C75.9078 17.7637 76.0107 18.091 76.0107 18.5304C76.0107 18.6613 75.9826 18.8764 75.9265 19.1756C75.8704 19.4935 75.8424 19.7366 75.8424 19.9049C75.8424 20.2508 76.0294 20.4238 76.4034 20.4238C76.6652 20.4238 76.8709 20.335 77.0205 20.1573C77.1794 19.9797 77.3617 19.6571 77.5674 19.1896H78.1565C77.5674 20.9193 76.7166 21.7842 75.6039 21.7842ZM79.5727 21.7842C78.8808 21.7842 78.3432 21.6066 77.9598 21.2513C77.5765 20.8866 77.3848 20.3209 77.3848 19.5542C77.3848 18.9091 77.511 18.1985 77.7635 17.4224C78.0159 16.6464 78.4273 15.9779 78.9977 15.4169C79.568 14.8465 80.2926 14.5613 81.1715 14.5613C82.2 14.5613 82.7143 15.0101 82.7143 15.9077C82.7143 16.4313 82.5647 16.9129 82.2655 17.3523C81.9663 17.7918 81.5689 18.1471 81.0734 18.4182C80.5778 18.68 80.0495 18.8296 79.4885 18.867C79.4698 19.1475 79.4605 19.3345 79.4605 19.428C79.4605 19.8862 79.54 20.1994 79.6989 20.3677C79.8579 20.5266 80.115 20.6061 80.4703 20.6061C80.9752 20.6061 81.4053 20.4892 81.7606 20.2555C82.1252 20.0217 82.5226 19.6664 82.9527 19.1896H83.4296C82.3917 20.9193 81.1061 21.7842 79.5727 21.7842ZM79.6007 18.1938C79.9467 18.1751 80.2739 18.0536 80.5825 17.8292C80.9004 17.6048 81.1528 17.3196 81.3398 16.9736C81.5362 16.6277 81.6344 16.263 81.6344 15.8797C81.6344 15.4963 81.5175 15.3047 81.2837 15.3047C80.9471 15.3047 80.6152 15.5992 80.288 16.1882C79.9701 16.7773 79.741 17.4458 79.6007 18.1938ZM84.0157 14.1686H86.0353L85.8109 15.2205C86.2784 14.8185 86.8253 14.6174 87.4518 14.6174C87.9754 14.6174 88.3915 14.7904 88.7 15.1364C89.0086 15.4823 89.1628 16.048 89.1628 16.8334C89.1628 17.572 89.0553 18.32 88.8403 19.0774C88.6252 19.8254 88.2606 20.4659 87.7463 20.9988C87.2321 21.5224 86.5542 21.7842 85.7127 21.7842C85.1143 21.7842 84.7169 21.6159 84.5206 21.2793L83.7913 24.7014L81.6735 25.2063L84.0157 14.1686ZM85.2779 20.564C85.7267 20.564 86.096 20.3537 86.3859 19.9329C86.6851 19.5122 86.9001 19.0119 87.031 18.4322C87.1713 17.8432 87.2414 17.2962 87.2414 16.7913C87.2414 16.0153 87.0077 15.6272 86.5402 15.6272C86.3719 15.6272 86.1989 15.688 86.0212 15.8096C85.8529 15.9311 85.7033 16.0994 85.5724 16.3145L84.745 20.2415C84.8198 20.4565 84.9974 20.564 85.2779 20.564ZM91.1933 21.7842C90.6603 21.7842 90.2162 21.6019 89.8609 21.2372C89.5056 20.8726 89.328 20.3022 89.328 19.5262C89.328 18.8343 89.4635 18.1097 89.7347 17.3523C90.0152 16.5856 90.4266 15.9405 90.9689 15.4169C91.5205 14.8839 92.175 14.6174 92.9324 14.6174C93.3157 14.6174 93.6009 14.6829 93.7879 14.8138C93.9749 14.9447 94.0684 15.1177 94.0684 15.3327V15.4309L94.2227 14.6876H96.2423L95.2325 19.4561C95.1951 19.5963 95.1764 19.7459 95.1764 19.9049C95.1764 20.3069 95.3681 20.5079 95.7514 20.5079C96.0132 20.5079 96.2376 20.3864 96.4246 20.1433C96.621 19.9002 96.7752 19.5823 96.8874 19.1896H97.4765C97.1305 20.1994 96.7004 20.8866 96.1862 21.2513C95.6813 21.6066 95.1717 21.7842 94.6575 21.7842C94.2648 21.7842 93.9469 21.6767 93.7038 21.4616C93.47 21.2372 93.3298 20.9147 93.283 20.4939C93.0119 20.8773 92.708 21.1905 92.3714 21.4336C92.0441 21.6673 91.6514 21.7842 91.1933 21.7842ZM92.1049 20.4238C92.3387 20.4238 92.5677 20.3163 92.7921 20.1012C93.0259 19.8768 93.1848 19.5729 93.269 19.1896L93.9422 16.0199C93.9422 15.8984 93.8954 15.7815 93.8019 15.6693C93.7084 15.5478 93.5635 15.487 93.3672 15.487C92.9932 15.487 92.6566 15.7067 92.3574 16.1462C92.0582 16.5763 91.8244 17.0999 91.6561 17.717C91.4878 18.3247 91.4037 18.8623 91.4037 19.3298C91.4037 19.7973 91.4691 20.0965 91.6 20.2274C91.7403 20.3583 91.9086 20.4238 92.1049 20.4238ZM109.08 19.1896C108.491 20.9193 107.622 21.7842 106.472 21.7842C105.939 21.7842 105.527 21.644 105.237 21.3635C104.957 21.0736 104.817 20.7183 104.817 20.2976C104.817 19.9329 104.915 19.3111 105.111 18.4322L105.518 16.609L102.979 21.7001H101.324L100.946 15.8236C100.778 16.0199 100.628 16.3051 100.497 16.6791C100.366 17.0438 100.24 17.5393 100.118 18.1658C99.9407 19.0821 99.7771 19.7833 99.6275 20.2695C99.4872 20.7557 99.2862 21.1297 99.0244 21.3915C98.7719 21.6533 98.4307 21.7842 98.0006 21.7842C97.4957 21.7842 97.0983 21.6299 96.8084 21.3214C96.5092 21.0035 96.3596 20.6201 96.3596 20.1713C96.3596 19.8534 96.4344 19.601 96.584 19.414C96.7336 19.2176 96.9393 19.1195 97.2011 19.1195C97.4255 19.1195 97.6079 19.1896 97.7481 19.3298C97.8884 19.4701 97.9585 19.6384 97.9585 19.8347C97.9585 20.0591 97.9024 20.2321 97.7902 20.3537C97.678 20.4659 97.5471 20.5126 97.3975 20.4939C97.3975 20.8492 97.5798 21.0269 97.9445 21.0269C98.2063 21.0269 98.4213 20.9334 98.5896 20.7464C98.7579 20.55 98.9028 20.2321 99.0244 19.7927C99.1553 19.3532 99.2955 18.7174 99.4451 17.8853C99.6508 16.6978 99.9594 15.8703 100.371 15.4028C100.792 14.926 101.339 14.6876 102.012 14.6876H102.643L102.909 20.0732L105.56 14.6876H107.832L107.089 18.1658C106.995 18.5678 106.916 18.9184 106.85 19.2176C106.785 19.5168 106.752 19.7225 106.752 19.8347C106.752 20.2274 106.939 20.4238 107.313 20.4238C107.575 20.4238 107.785 20.335 107.944 20.1573C108.103 19.9797 108.286 19.6571 108.491 19.1896H109.08ZM109.882 21.7842C109.433 21.7842 109.068 21.644 108.788 21.3635C108.517 21.083 108.381 20.6622 108.381 20.1012C108.381 19.8675 108.419 19.5636 108.493 19.1896L109.447 14.6876H111.467L110.457 19.4561C110.429 19.5963 110.415 19.7272 110.415 19.8488C110.415 20.2321 110.555 20.4238 110.836 20.4238C111.097 20.4238 111.322 20.3163 111.509 20.1012C111.696 19.8768 111.845 19.5729 111.958 19.1896L112.911 14.6876H114.931L113.921 19.4561C113.884 19.5963 113.865 19.7459 113.865 19.9049C113.865 20.0919 113.907 20.2274 113.991 20.3116C114.085 20.3864 114.234 20.4238 114.44 20.4238C114.702 20.4238 114.926 20.3116 115.113 20.0872C115.309 19.8628 115.464 19.5636 115.576 19.1896H116.165C115.819 20.1994 115.389 20.8866 114.875 21.2513C114.37 21.6066 113.86 21.7842 113.346 21.7842C112.944 21.7842 112.621 21.672 112.378 21.4476C112.145 21.2232 112.004 20.8913 111.958 20.4518C111.64 20.9661 111.303 21.3167 110.948 21.5037C110.602 21.6907 110.246 21.7842 109.882 21.7842ZM120.637 21.7842C120.076 21.7842 119.651 21.6486 119.361 21.3775C119.081 21.097 118.94 20.7136 118.94 20.2274C118.94 20.0965 118.973 19.8347 119.038 19.442C119.085 19.2083 119.109 19.026 119.109 18.8951C119.109 18.4463 118.931 18.2219 118.576 18.2219C118.454 18.2219 118.337 18.2593 118.225 18.3341C118.122 18.3995 117.94 18.5351 117.678 18.7408L117.061 21.7001H115.041L116.542 14.6876H118.562L117.959 17.4645C118.594 16.7165 119.099 16.1462 119.473 15.7535C119.847 15.3608 120.189 15.0662 120.497 14.8699C120.815 14.6642 121.124 14.5613 121.423 14.5613C122.002 14.5613 122.292 14.8699 122.292 15.487C122.292 15.7675 122.213 15.9919 122.054 16.1602C121.904 16.3191 121.689 16.3986 121.409 16.3986C121.147 16.3986 120.951 16.3285 120.82 16.1882C120.689 16.0386 120.628 15.8703 120.637 15.6833C120.46 15.7955 120.301 15.9218 120.16 16.062C120.02 16.2023 119.866 16.3846 119.698 16.609C119.501 16.8708 119.31 17.0952 119.123 17.2822C119.31 17.2448 119.506 17.2261 119.712 17.2261C120.198 17.2261 120.539 17.3336 120.736 17.5487C120.941 17.7637 121.044 18.091 121.044 18.5304C121.044 18.6613 121.016 18.8764 120.96 19.1756C120.904 19.4935 120.876 19.7366 120.876 19.9049C120.876 20.2508 121.063 20.4238 121.437 20.4238C121.699 20.4238 121.904 20.335 122.054 20.1573C122.213 19.9797 122.395 19.6571 122.601 19.1896H123.19C122.601 20.9193 121.75 21.7842 120.637 21.7842ZM123.989 21.7842C123.54 21.7842 123.176 21.644 122.895 21.3635C122.624 21.083 122.488 20.6622 122.488 20.1012C122.488 19.8675 122.526 19.5636 122.601 19.1896L123.554 14.6876H125.574L124.564 19.4561C124.536 19.5683 124.522 19.6851 124.522 19.8067C124.522 20.2181 124.662 20.4238 124.943 20.4238C125.204 20.4238 125.429 20.3163 125.616 20.1012C125.803 19.8768 125.952 19.5729 126.065 19.1896L127.018 14.6876H129.038L128.028 19.4561C127.991 19.5963 127.972 19.7459 127.972 19.9049C127.972 20.0919 128.014 20.2274 128.098 20.3116C128.192 20.3864 128.341 20.4238 128.547 20.4238C128.697 20.4238 128.804 20.4144 128.87 20.3957C128.944 20.3677 128.991 20.349 129.01 20.3396C128.973 20.8165 128.809 21.1765 128.519 21.4196C128.229 21.6627 127.874 21.7842 127.453 21.7842C127.06 21.7842 126.743 21.6673 126.499 21.4336C126.266 21.1998 126.125 20.8726 126.079 20.4518C125.761 20.9661 125.424 21.3167 125.069 21.5037C124.723 21.6907 124.363 21.7842 123.989 21.7842Z" fill="#EFF5FF"/>
<path d="M43.42 27.7962L45.2309 32.316L47.0419 27.7962H47.9892V33.3356H47.2587V31.1784L47.3272 28.85L45.5087 33.3356H44.9494L43.1346 28.8615L43.2069 31.1784V33.3356H42.4765V27.7962H43.42ZM51.71 33.3356C51.6695 33.2544 51.6365 33.1098 51.6111 32.9019C51.2839 33.2417 50.8933 33.4117 50.4393 33.4117C50.0335 33.4117 49.7 33.2975 49.4387 33.0693C49.18 32.8384 49.0507 32.5468 49.0507 32.1942C49.0507 31.7656 49.213 31.4333 49.5377 31.1974C49.8648 30.959 50.3239 30.8398 50.9149 30.8398H51.5997V30.5164C51.5997 30.2704 51.5262 30.0751 51.379 29.9305C51.2319 29.7834 51.0151 29.7099 50.7285 29.7099C50.4774 29.7099 50.2669 29.7733 50.0969 29.9001C49.927 30.0269 49.842 30.1804 49.842 30.3604H49.1344C49.1344 30.155 49.2067 29.9572 49.3512 29.7669C49.4983 29.5742 49.6962 29.422 49.9447 29.3104C50.1958 29.1988 50.471 29.143 50.7703 29.143C51.2446 29.143 51.6162 29.2622 51.8851 29.5006C52.1539 29.7365 52.2934 30.0624 52.3035 30.4784V32.373C52.3035 32.7509 52.3517 33.0515 52.4481 33.2747V33.3356H51.71ZM50.5421 32.7991C50.7627 32.7991 50.972 32.7421 51.1698 32.6279C51.3676 32.5138 51.5109 32.3654 51.5997 32.1828V31.3382H51.0481C50.1857 31.3382 49.7545 31.5906 49.7545 32.0953C49.7545 32.316 49.8281 32.4884 49.9752 32.6127C50.1223 32.737 50.3112 32.7991 50.5421 32.7991ZM56.0662 29.8012H54.1678V33.3356H53.4601V29.2191H56.0662V29.8012ZM59.2202 33.3356C59.1796 33.2544 59.1466 33.1098 59.1213 32.9019C58.7941 33.2417 58.4035 33.4117 57.9495 33.4117C57.5436 33.4117 57.2101 33.2975 56.9489 33.0693C56.6902 32.8384 56.5608 32.5468 56.5608 32.1942C56.5608 31.7656 56.7231 31.4333 57.0478 31.1974C57.375 30.959 57.8341 30.8398 58.425 30.8398H59.1098V30.5164C59.1098 30.2704 59.0363 30.0751 58.8892 29.9305C58.7421 29.7834 58.5252 29.7099 58.2386 29.7099C57.9875 29.7099 57.777 29.7733 57.6071 29.9001C57.4371 30.0269 57.3522 30.1804 57.3522 30.3604H56.6445C56.6445 30.155 56.7168 29.9572 56.8614 29.7669C57.0085 29.5742 57.2063 29.422 57.4549 29.3104C57.706 29.1988 57.9812 29.143 58.2805 29.143C58.7548 29.143 59.1263 29.2622 59.3952 29.5006C59.664 29.7365 59.8035 30.0624 59.8137 30.4784V32.373C59.8137 32.7509 59.8619 33.0515 59.9583 33.2747V33.3356H59.2202ZM58.0522 32.7991C58.2728 32.7991 58.4821 32.7421 58.6799 32.6279C58.8778 32.5138 59.0211 32.3654 59.1098 32.1828V31.3382H58.5582C57.6958 31.3382 57.2646 31.5906 57.2646 32.0953C57.2646 32.316 57.3382 32.4884 57.4853 32.6127C57.6324 32.737 57.8214 32.7991 58.0522 32.7991ZM63.1807 30.3452C63.1807 30.1525 63.1071 30.0003 62.96 29.8887C62.8129 29.7745 62.6113 29.7175 62.3551 29.7175C62.1065 29.7175 61.8986 29.7821 61.7312 29.9115C61.5663 30.0409 61.4839 30.193 61.4839 30.368H60.7838C60.7838 30.0104 60.9335 29.7175 61.2328 29.4892C61.5321 29.2609 61.9062 29.1468 62.3551 29.1468C62.837 29.1468 63.2124 29.2508 63.4812 29.4588C63.7501 29.6642 63.8845 29.9584 63.8845 30.3414C63.8845 30.5266 63.8287 30.6965 63.7171 30.8512C63.6055 31.0059 63.447 31.1289 63.2416 31.2203C63.7209 31.3826 63.9606 31.7022 63.9606 32.179C63.9606 32.5569 63.8148 32.8562 63.5231 33.0769C63.2314 33.2975 62.8421 33.4079 62.3551 33.4079C61.8808 33.4079 61.4889 33.2925 61.1795 33.0616C60.8726 32.8283 60.7192 32.5138 60.7192 32.1181H61.4192C61.4192 32.3185 61.508 32.491 61.6855 32.6355C61.8656 32.7776 62.0888 32.8486 62.3551 32.8486C62.624 32.8486 62.8408 32.7865 63.0057 32.6622C63.1705 32.5379 63.253 32.3768 63.253 32.179C63.253 31.9482 63.1832 31.7833 63.0437 31.6844C62.9068 31.583 62.6924 31.5322 62.4008 31.5322H61.6969V30.9387H62.4616C62.941 30.926 63.1807 30.7282 63.1807 30.3452ZM67.5369 29.2191H68.2407V33.3356H67.5369V30.3338L65.6384 33.3356H64.9346V29.2191H65.6384V32.2247L67.5369 29.2191ZM72.7338 33.3356H72.03V31.5779H70.1392V33.3356H69.4315V29.2191H70.1392V31.0034H72.03V29.2191H72.7338V33.3356ZM75.7661 32.7611L76.0095 32.4605C76.2835 32.1054 76.4395 31.5728 76.4775 30.8626L76.5422 29.2191H79.1939V32.7611H79.7228V34.5454H79.0189V33.3356H76.1465V34.5454H75.4427L75.4465 32.7611H75.7661ZM76.5992 32.7611H78.4901V29.8696H77.2232L77.1813 30.8512C77.1382 31.6705 76.9442 32.3071 76.5992 32.7611ZM83.1659 29.2191H83.8697V33.3356H83.1659V30.3338L81.2674 33.3356H80.5636V29.2191H81.2674V32.2247L83.1659 29.2191ZM87.2633 30.3452C87.2633 30.1525 87.1898 30.0003 87.0427 29.8887C86.8956 29.7745 86.6939 29.7175 86.4377 29.7175C86.1892 29.7175 85.9812 29.7821 85.8138 29.9115C85.6489 30.0409 85.5665 30.193 85.5665 30.368H84.8665C84.8665 30.0104 85.0161 29.7175 85.3154 29.4892C85.6147 29.2609 85.9888 29.1468 86.4377 29.1468C86.9197 29.1468 87.295 29.2508 87.5639 29.4588C87.8327 29.6642 87.9672 29.9584 87.9672 30.3414C87.9672 30.5266 87.9114 30.6965 87.7998 30.8512C87.6882 31.0059 87.5296 31.1289 87.3242 31.2203C87.8036 31.3826 88.0433 31.7022 88.0433 32.179C88.0433 32.5569 87.8974 32.8562 87.6057 33.0769C87.3141 33.2975 86.9247 33.4079 86.4377 33.4079C85.9634 33.4079 85.5716 33.2925 85.2621 33.0616C84.9553 32.8283 84.8018 32.5138 84.8018 32.1181H85.5018C85.5018 32.3185 85.5906 32.491 85.7682 32.6355C85.9482 32.7776 86.1714 32.8486 86.4377 32.8486C86.7066 32.8486 86.9235 32.7865 87.0883 32.6622C87.2532 32.5379 87.3356 32.3768 87.3356 32.179C87.3356 31.9482 87.2659 31.7833 87.1264 31.6844C86.9894 31.583 86.7751 31.5322 86.4834 31.5322H85.7796V30.9387H86.5443C87.0236 30.926 87.2633 30.7282 87.2633 30.3452ZM91.4978 33.3356C91.4572 33.2544 91.4242 33.1098 91.3988 32.9019C91.0717 33.2417 90.6811 33.4117 90.2271 33.4117C89.8212 33.4117 89.4877 33.2975 89.2265 33.0693C88.9678 32.8384 88.8384 32.5468 88.8384 32.1942C88.8384 31.7656 89.0007 31.4333 89.3254 31.1974C89.6526 30.959 90.1116 30.8398 90.7026 30.8398H91.3874V30.5164C91.3874 30.2704 91.3139 30.0751 91.1668 29.9305C91.0197 29.7834 90.8028 29.7099 90.5162 29.7099C90.2651 29.7099 90.0546 29.7733 89.8846 29.9001C89.7147 30.0269 89.6297 30.1804 89.6297 30.3604H88.9221C88.9221 30.155 88.9944 29.9572 89.139 29.7669C89.2861 29.5742 89.4839 29.422 89.7325 29.3104C89.9836 29.1988 90.2588 29.143 90.558 29.143C91.0323 29.143 91.4039 29.2622 91.6728 29.5006C91.9416 29.7365 92.0811 30.0624 92.0913 30.4784V32.373C92.0913 32.7509 92.1395 33.0515 92.2358 33.2747V33.3356H91.4978ZM90.3298 32.7991C90.5504 32.7991 90.7597 32.7421 90.9575 32.6279C91.1554 32.5138 91.2987 32.3654 91.3874 32.1828V31.3382H90.8358C89.9734 31.3382 89.5422 31.5906 89.5422 32.0953C89.5422 32.316 89.6158 32.4884 89.7629 32.6127C89.91 32.737 90.099 32.7991 90.3298 32.7991ZM95.8578 29.2191H96.5616V33.3356H95.8578V30.3338L93.9593 33.3356H93.2555V29.2191H93.9593V32.2247L95.8578 29.2191ZM96.048 27.7201C96.048 28.027 95.9427 28.2743 95.7322 28.462C95.5242 28.6471 95.2503 28.7397 94.9104 28.7397C94.5706 28.7397 94.2954 28.6459 94.0848 28.4582C93.8743 28.2705 93.7691 28.0245 93.7691 27.7201H94.3435C94.3435 27.8976 94.3917 28.0371 94.4881 28.1386C94.5845 28.2375 94.7253 28.287 94.9104 28.287C95.088 28.287 95.2262 28.2375 95.3251 28.1386C95.4266 28.0397 95.4773 27.9002 95.4773 27.7201H96.048ZM101.055 33.3356H100.351V31.5779H98.46V33.3356H97.7524V29.2191H98.46V31.0034H100.351V29.2191H101.055V33.3356ZM103.897 33.4117C103.339 33.4117 102.885 33.229 102.535 32.8638C102.185 32.496 102.01 32.0053 102.01 31.3915V31.2621C102.01 30.8538 102.087 30.4898 102.242 30.1702C102.399 29.8481 102.617 29.597 102.896 29.4169C103.178 29.2343 103.482 29.143 103.809 29.143C104.344 29.143 104.76 29.3193 105.057 29.6718C105.354 30.0244 105.502 30.5291 105.502 31.186V31.479H102.714C102.724 31.8848 102.842 32.2132 103.067 32.4643C103.296 32.7129 103.585 32.8372 103.935 32.8372C104.183 32.8372 104.394 32.7865 104.566 32.685C104.739 32.5835 104.89 32.4491 105.019 32.2817L105.449 32.6165C105.104 33.1466 104.587 33.4117 103.897 33.4117ZM103.809 29.7213C103.525 29.7213 103.287 29.8253 103.094 30.0332C102.901 30.2387 102.782 30.5278 102.736 30.9007H104.798V30.8474C104.778 30.4898 104.682 30.2133 104.509 30.018C104.337 29.8202 104.103 29.7213 103.809 29.7213ZM109.798 31.323C109.798 31.9495 109.654 32.4542 109.368 32.8372C109.081 33.2202 108.693 33.4117 108.203 33.4117C107.704 33.4117 107.311 33.2531 107.024 32.9361V34.9183H106.32V29.2191H106.963L106.997 29.6756C107.284 29.3205 107.682 29.143 108.192 29.143C108.687 29.143 109.077 29.3294 109.364 29.7023C109.653 30.0751 109.798 30.5938 109.798 31.2583V31.323ZM109.094 31.2431C109.094 30.7789 108.995 30.4124 108.797 30.1436C108.599 29.8747 108.328 29.7403 107.983 29.7403C107.557 29.7403 107.237 29.9293 107.024 30.3072V32.2741C107.235 32.6495 107.557 32.8372 107.99 32.8372C108.328 32.8372 108.595 32.704 108.793 32.4377C108.994 32.1689 109.094 31.7706 109.094 31.2431ZM112.347 32.8372C112.598 32.8372 112.817 32.7611 113.005 32.6089C113.192 32.4567 113.296 32.2665 113.317 32.0382H113.983C113.97 32.2741 113.889 32.4986 113.739 32.7116C113.589 32.9247 113.389 33.0946 113.138 33.2214C112.889 33.3483 112.626 33.4117 112.347 33.4117C111.786 33.4117 111.34 33.2252 111.007 32.8524C110.678 32.477 110.513 31.9647 110.513 31.3154V31.1974C110.513 30.7967 110.586 30.4403 110.733 30.1284C110.881 29.8164 111.091 29.5742 111.365 29.4017C111.641 29.2292 111.967 29.143 112.343 29.143C112.804 29.143 113.187 29.2812 113.492 29.5577C113.799 29.8341 113.962 30.193 113.983 30.6344H113.317C113.296 30.368 113.195 30.1499 113.012 29.98C112.832 29.8075 112.609 29.7213 112.343 29.7213C111.985 29.7213 111.707 29.8506 111.51 30.1093C111.314 30.3655 111.217 30.7371 111.217 31.2241V31.3572C111.217 31.8315 111.314 32.1968 111.51 32.4529C111.705 32.7091 111.984 32.8372 112.347 32.8372ZM116.056 31.5817H115.542V33.3356H114.835V29.2191H115.542V30.9615H116.003L117.388 29.2191H118.24L116.611 31.1974L118.377 33.3356H117.483L116.056 31.5817ZM118.712 31.2393C118.712 30.836 118.79 30.4733 118.947 30.1512C119.107 29.8291 119.328 29.5805 119.609 29.4055C119.893 29.2305 120.217 29.143 120.58 29.143C121.14 29.143 121.593 29.337 121.938 29.7251C122.285 30.1131 122.459 30.6293 122.459 31.2735V31.323C122.459 31.7237 122.382 32.0839 122.227 32.4035C122.075 32.7205 121.855 32.9678 121.569 33.1453C121.285 33.3229 120.957 33.4117 120.587 33.4117C120.029 33.4117 119.576 33.2176 119.229 32.8296C118.884 32.4415 118.712 31.9279 118.712 31.2887V31.2393ZM119.419 31.323C119.419 31.7795 119.524 32.146 119.735 32.4225C119.948 32.6989 120.232 32.8372 120.587 32.8372C120.945 32.8372 121.229 32.6977 121.439 32.4187C121.65 32.1371 121.755 31.744 121.755 31.2393C121.755 30.7878 121.647 30.4226 121.432 30.1436C121.219 29.862 120.935 29.7213 120.58 29.7213C120.232 29.7213 119.952 29.8595 119.739 30.136C119.526 30.4124 119.419 30.8081 119.419 31.323ZM126.005 29.2191H126.709V33.3356H126.005V30.3338L124.106 33.3356H123.403V29.2191H124.106V32.2247L126.005 29.2191ZM126.195 27.7201C126.195 28.027 126.09 28.2743 125.879 28.462C125.671 28.6471 125.397 28.7397 125.057 28.7397C124.718 28.7397 124.442 28.6459 124.232 28.4582C124.021 28.2705 123.916 28.0245 123.916 27.7201H124.491C124.491 27.8976 124.539 28.0371 124.635 28.1386C124.732 28.2375 124.872 28.287 125.057 28.287C125.235 28.287 125.373 28.2375 125.472 28.1386C125.574 28.0397 125.624 27.9002 125.624 27.7201H126.195ZM45.7331 42.3356H45.0293V38.8012H43.1346V42.3356H42.427V38.2191H45.7331V42.3356ZM46.6767 40.2393C46.6767 39.836 46.7553 39.4733 46.9125 39.1512C47.0723 38.8291 47.293 38.5805 47.5745 38.4055C47.8586 38.2305 48.182 38.143 48.5447 38.143C49.1052 38.143 49.5579 38.337 49.9029 38.7251C50.2504 39.1131 50.4241 39.6293 50.4241 40.2735V40.323C50.4241 40.7237 50.3468 41.0839 50.192 41.4035C50.0399 41.7205 49.8205 41.9678 49.5339 42.1453C49.2498 42.3229 48.9226 42.4117 48.5523 42.4117C47.9943 42.4117 47.5416 42.2176 47.1941 41.8296C46.8491 41.4415 46.6767 40.9279 46.6767 40.2887V40.2393ZM47.3843 40.323C47.3843 40.7795 47.4896 41.146 47.7001 41.4225C47.9131 41.6989 48.1972 41.8372 48.5523 41.8372C48.9099 41.8372 49.194 41.6977 49.4045 41.4187C49.615 41.1371 49.7203 40.744 49.7203 40.2393C49.7203 39.7878 49.6125 39.4226 49.3969 39.1436C49.1838 38.862 48.8998 38.7213 48.5447 38.7213C48.1972 38.7213 47.9169 38.8595 47.7039 39.136C47.4908 39.4124 47.3843 39.8081 47.3843 40.323ZM52.9579 41.8372C53.209 41.8372 53.4284 41.7611 53.6161 41.6089C53.8038 41.4567 53.9078 41.2665 53.9281 41.0382H54.5939C54.5812 41.2741 54.5 41.4986 54.3504 41.7116C54.2007 41.9247 54.0004 42.0946 53.7493 42.2214C53.5007 42.3483 53.2369 42.4117 52.9579 42.4117C52.3974 42.4117 51.951 42.2252 51.6187 41.8524C51.289 41.477 51.1241 40.9647 51.1241 40.3154V40.1974C51.1241 39.7967 51.1977 39.4403 51.3448 39.1284C51.4919 38.8164 51.7024 38.5742 51.9764 38.4017C52.2528 38.2292 52.5787 38.143 52.9541 38.143C53.4157 38.143 53.7987 38.2812 54.1031 38.5577C54.41 38.8341 54.5736 39.193 54.5939 39.6344H53.9281C53.9078 39.368 53.8063 39.1499 53.6237 38.98C53.4436 38.8075 53.2204 38.7213 52.9541 38.7213C52.5965 38.7213 52.3188 38.8506 52.1209 39.1093C51.9256 39.3655 51.828 39.7371 51.828 40.2241V40.3572C51.828 40.8315 51.9256 41.1968 52.1209 41.4529C52.3162 41.7091 52.5952 41.8372 52.9579 41.8372ZM56.732 41.3045L57.6908 38.2191H58.4441L56.7891 42.9709C56.5329 43.6557 56.1258 43.9981 55.5678 43.9981L55.4347 43.9867L55.1722 43.9373V43.3666L55.3624 43.3818C55.6008 43.3818 55.786 43.3336 55.9178 43.2372C56.0523 43.1409 56.1626 42.9646 56.2488 42.7084L56.4048 42.2899L54.9363 38.2191H55.7048L56.732 41.3045ZM58.8283 41.7611L59.0718 41.4605C59.3457 41.1054 59.5017 40.5728 59.5398 39.8626L59.6044 38.2191H62.2562V41.7611H62.785V43.5454H62.0812V42.3356H59.2088V43.5454H58.5049L58.5087 41.7611H58.8283ZM59.6615 41.7611H61.5523V38.8696H60.2854L60.2436 39.8512C60.2005 40.6705 60.0064 41.3071 59.6615 41.7611ZM64.3335 39.6382H65.4025C65.8692 39.6432 66.2383 39.765 66.5096 40.0034C66.781 40.2418 66.9167 40.5652 66.9167 40.9736C66.9167 41.3844 66.7772 41.7142 66.4982 41.9627C66.2192 42.2113 65.8439 42.3356 65.3721 42.3356H63.6296V38.2191H64.3335V39.6382ZM68.3853 42.3356H67.6776V38.2191H68.3853V42.3356ZM64.3335 40.2126V41.7611H65.3797C65.6435 41.7611 65.8477 41.6939 65.9922 41.5594C66.1368 41.4225 66.2091 41.2361 66.2091 41.0002C66.2091 40.7719 66.1381 40.5855 65.996 40.4409C65.8565 40.2938 65.66 40.2177 65.4063 40.2126H64.3335Z" fill="#EFF5FF"/>
</svg>
