<svg width="12" height="13" viewBox="0 0 12 13" fill="none" xmlns="http://www.w3.org/2000/svg">
<path d="M7.69557 11.5955H5.09437V13H2.17736V11.5955H0.523564V9.35167H2.17736V8.89459H0.523564V6.64243H2.17736V0.899843H6.98086C7.9061 0.899843 8.72607 1.06882 9.44078 1.40679C10.161 1.74475 10.7178 2.22676 11.1112 2.85282C11.5046 3.47334 11.7013 4.17697 11.7013 4.9637C11.7013 6.17704 11.2691 7.13552 10.4048 7.83915C9.54605 8.54278 8.38534 8.89459 6.92269 8.89459H5.09437V9.35167H7.69557V11.5955ZM5.09437 6.64243H6.88113C8.12217 6.64243 8.7427 6.08839 8.7427 4.98032C8.7427 4.43737 8.58757 3.99968 8.2773 3.66726C7.96704 3.33483 7.54321 3.16585 7.00579 3.16031H5.09437V6.64243Z" fill="#EFF5FF"/>
</svg>
