<svg width="10" height="10" viewBox="0 0 10 10" fill="none" xmlns="http://www.w3.org/2000/svg">
<path d="M6.33008 8.84473H4.19043V10H1.79102V8.84473H0.430664V6.99902H1.79102V6.62305H0.430664V4.77051H1.79102V0.046875H5.74219C6.50326 0.046875 7.17773 0.185872 7.76562 0.463867C8.35807 0.741862 8.81608 1.13835 9.13965 1.65332C9.46322 2.16374 9.625 2.74251 9.625 3.38965C9.625 4.3877 9.26953 5.17611 8.55859 5.75488C7.85221 6.33366 6.89746 6.62305 5.69434 6.62305H4.19043V6.99902H6.33008V8.84473ZM4.19043 4.77051H5.66016C6.68099 4.77051 7.19141 4.31478 7.19141 3.40332C7.19141 2.95671 7.0638 2.59668 6.80859 2.32324C6.55339 2.0498 6.20475 1.91081 5.7627 1.90625H4.19043V4.77051Z" fill="#EFF5FF"/>
</svg>
