<svg width="10" height="10" viewBox="0 0 10 10" fill="none" xmlns="http://www.w3.org/2000/svg">
<path d="M6.34138 8.84266H4.19791V10H1.79421V8.84266H0.431433V6.99366H1.79421V6.61702H0.431433V4.76117H1.79421V0.0291018H5.75244C6.51487 0.0291018 7.19055 0.168347 7.77949 0.446839C8.373 0.72533 8.83182 1.12252 9.15597 1.63842C9.48011 2.14974 9.64219 2.72955 9.64219 3.37784C9.64219 4.37767 9.28608 5.16749 8.57388 5.7473C7.86624 6.32711 6.90978 6.61702 5.7045 6.61702H4.19791V6.99366H6.34138V8.84266ZM4.19791 4.76117H5.67026C6.69292 4.76117 7.20425 4.30463 7.20425 3.39154C7.20425 2.94413 7.07642 2.58346 6.82075 2.30953C6.56509 2.03561 6.21583 1.89636 5.77299 1.8918H4.19791V4.76117Z" fill="#EFF5FF"/>
</svg>
