<svg width="17" height="18" viewBox="0 0 17 18" fill="none" xmlns="http://www.w3.org/2000/svg">
<path d="M10.2188 15.7266H6.49219V18H2.97656V15.7266H0.597656V12.8789H2.97656V11.9883H0.597656V9.14062H2.97656V0.9375H9.60938C10.8906 0.9375 12.0156 1.16797 12.9844 1.62891C13.9531 2.08984 14.7031 2.75 15.2344 3.60938C15.7734 4.46094 16.043 5.43359 16.043 6.52734C16.043 8.21484 15.4688 9.54688 14.3203 10.5234C13.1797 11.5 11.5898 11.9883 9.55078 11.9883H6.49219V12.8789H10.2188V15.7266ZM6.49219 9.14062H9.52734C11.4961 9.14062 12.4805 8.27734 12.4805 6.55078C12.4805 5.73047 12.2305 5.07031 11.7305 4.57031C11.2305 4.0625 10.5391 3.80469 9.65625 3.79688H6.49219V9.14062Z" fill="#050023"/>
</svg>
