<svg width="22" height="20" viewBox="0 0 22 20" fill="none" xmlns="http://www.w3.org/2000/svg">
<path d="M18.7567 16.5735L14.8125 12.6129C15.8266 11.449 16.3823 9.98455 16.3823 8.45999C16.3823 4.89801 13.3806 2 9.69113 2C6.0017 2 3 4.89801 3 8.45999C3 12.022 6.0017 14.92 9.69113 14.92C11.0762 14.92 12.3961 14.5167 13.5246 13.751L17.4988 17.7416C17.6649 17.9082 17.8883 18 18.1278 18C18.3544 18 18.5694 17.9166 18.7326 17.7649C19.0794 17.4428 19.0904 16.9085 18.7567 16.5735ZM9.69113 3.68522C12.4182 3.68522 14.6367 5.82713 14.6367 8.45999C14.6367 11.0929 12.4182 13.2348 9.69113 13.2348C6.96406 13.2348 4.74551 11.0929 4.74551 8.45999C4.74551 5.82713 6.96406 3.68522 9.69113 3.68522Z" fill="#C1C1C1"/>
</svg>
