<svg width="25" height="25" viewBox="0 0 25 25" fill="none" xmlns="http://www.w3.org/2000/svg">
<g clip-path="url(#clip0)">
<path d="M24.6866 4.56986C23.7918 4.96233 22.8385 5.22248 21.8445 5.34879C22.867 4.73828 23.6475 3.77889 24.0144 2.62253C23.061 3.19094 22.0084 3.59243 20.8866 3.81649C19.9814 2.8526 18.6912 2.25562 17.2837 2.25562C14.5529 2.25562 12.3545 4.47211 12.3545 7.18936C12.3545 7.58033 12.3875 7.95626 12.4687 8.31415C8.36807 8.11415 4.73957 6.14878 2.30202 3.15485C1.87646 3.89318 1.62684 4.73828 1.62684 5.64803C1.62684 7.35627 2.50653 8.87053 3.81778 9.7472C3.02531 9.73217 2.24788 9.5021 1.58925 9.1397C1.58925 9.15473 1.58925 9.17428 1.58925 9.19383C1.58925 11.5908 3.29899 13.5817 5.54106 14.0404C5.13956 14.1501 4.70197 14.2028 4.24785 14.2028C3.93206 14.2028 3.61327 14.1847 3.31403 14.1185C3.95312 16.0719 5.76662 17.508 7.92297 17.5546C6.2448 18.8673 4.11401 19.6583 1.80729 19.6583C1.40279 19.6583 1.01482 19.6402 0.626862 19.5906C2.81178 20.9996 5.40121 21.8041 8.19364 21.8041C17.2702 21.8041 22.2325 14.2855 22.2325 7.76829C22.2325 7.55025 22.225 7.33973 22.2144 7.13071C23.1934 6.43599 24.0159 5.56833 24.6866 4.56986Z" fill="#C1C1C1"/>
</g>
<defs>
<clipPath id="clip0">
<rect width="24.0597" height="24.0597" fill="white" transform="translate(0.626862)"/>
</clipPath>
</defs>
</svg>
