<svg width="25" height="25" viewBox="0 0 25 25" fill="none" xmlns="http://www.w3.org/2000/svg">
<path d="M22.8313 6.39208C22.5714 5.42577 21.8095 4.66404 20.8433 4.40385C19.0783 3.9209 12.0178 3.9209 12.0178 3.9209C12.0178 3.9209 4.95765 3.9209 3.19258 4.38554C2.24499 4.64546 1.46454 5.42591 1.20461 6.39208C0.740112 8.15702 0.740112 11.8173 0.740112 11.8173C0.740112 11.8173 0.740112 15.496 1.20461 17.2424C1.46481 18.2086 2.22641 18.9703 3.19272 19.2305C4.97624 19.7136 12.0181 19.7136 12.0181 19.7136C12.0181 19.7136 19.0783 19.7136 20.8433 19.249C21.8096 18.9889 22.5714 18.2272 22.8316 17.261C23.2959 15.496 23.2959 11.8358 23.2959 11.8358C23.2959 11.8358 23.3145 8.15702 22.8313 6.39208ZM9.76993 15.1987V8.4358L15.641 11.8173L9.76993 15.1987Z" fill="#C1C1C1"/>
</svg>
